<svg xmlns="http://www.w3.org/2000/svg" xmlns:xlink="http://www.w3.org/1999/xlink" viewBox="0 0 638.85 638.82"><defs><radialGradient id="d" cx="305.89" cy="108.49" r="319.42" gradientTransform="matrix(0 1.5877 -1.6842 0 645.65 -272.62)" gradientUnits="userSpaceOnUse"><stop offset="0" style="stop-color:#999"/><stop offset="1" style="stop-color:#1a1a1a"/></radialGradient><radialGradient id="e" cx="468.65" cy="276.19" r="257.14" gradientTransform="matrix(0 1.1451 -1.7493 .00003 945.99 -255.75)" gradientUnits="userSpaceOnUse"><stop offset="0" style="stop-color:#4d4d4d"/><stop offset="1" style="stop-color:#000"/></radialGradient><radialGradient id="f" cx="466.25" cy="282.33" r="257.14" gradientTransform="matrix(0 1.3371 -1.8072 0 973.1 -342.47)" gradientUnits="userSpaceOnUse"><stop offset="0" style="stop-color:#fff"/><stop offset="1" style="stop-color:#ccc;stop-opacity:0"/></radialGradient><radialGradient id="g" cx="466.25" cy="282.33" r="257.14" gradientTransform="matrix(0 1.3371 -1.8072 0 973.1 -342.47)" gradientUnits="userSpaceOnUse"><stop offset="0" style="stop-color:#ccc"/><stop offset="1" style="stop-color:#1a1a1a"/></radialGradient><radialGradient id="i" cx="-4657.9" cy="-49.371" r="257.14" gradientTransform="matrix(.03248 1.2941 -1.8061 .04535 521.1 6322.5)" gradientUnits="userSpaceOnUse"><stop offset="0" style="stop-color:#fff"/><stop offset="1" style="stop-color:#000;stop-opacity:0"/></radialGradient><radialGradient id="j" cx="-4657.9" cy="-49.371" r="257.14" gradientTransform="matrix(.03248 1.2941 -1.8061 .04535 521.1 6322.5)" gradientUnits="userSpaceOnUse"><stop offset="0" style="stop-color:#fff"/><stop offset="1" style="stop-color:#333"/></radialGradient><radialGradient id="h" cx="733.11" cy="744.48" r="257.14" gradientTransform="matrix(-.29792 -.19112 .53995 -.84169 474.34 1447.8)" gradientUnits="userSpaceOnUse"><stop offset="0" style="stop-color:#333"/><stop offset="1" style="stop-color:#000"/></radialGradient><radialGradient id="k" cx="424.68" cy="201.21" r="257.14" gradientTransform="matrix(-.35403 .93235 -1.7481 -.66379 1070.5 316.35)" gradientUnits="userSpaceOnUse"><stop offset="0" style="stop-color:#00112b"/><stop offset="1" style="stop-color:#000"/></radialGradient><radialGradient xlink:href="#a" id="m" cx="466.48" cy="291.37" r="257.14" gradientTransform="matrix(-.01408 .74261 -.99982 -.01895 764.36 -49.514)" gradientUnits="userSpaceOnUse"/><radialGradient id="q" cx="464.4" cy="229.23" r="259.81" gradientTransform="matrix(-.0001 2.0482 -1.7396 -.00009 861.67 -672.92)" gradientUnits="userSpaceOnUse"><stop offset="0" style="stop-color:#fff"/><stop offset=".612" style="stop-color:#fff;stop-opacity:0"/><stop offset="1" style="stop-color:#fff"/></radialGradient><radialGradient xlink:href="#b" id="o" cx="466.73" cy="275.13" r="259.4" gradientTransform="matrix(-.00009 1.7308 -1.47 -.00007 867.35 -488.93)" gradientUnits="userSpaceOnUse"/><radialGradient xlink:href="#b" id="s" cx="463.05" cy="202.94" r="259.81" gradientTransform="matrix(-.00012 2.2317 -1.8955 -.0001 847.57 -778.4)" gradientUnits="userSpaceOnUse"/><radialGradient id="t" cx="423.57" cy="347.42" r="198.14" gradientTransform="matrix(.12257 .95216 -.99182 .12767 754.62 -148.98)" gradientUnits="userSpaceOnUse"><stop offset="0" style="stop-color:#fff"/><stop offset="1" style="stop-color:#fff;stop-opacity:0"/></radialGradient><radialGradient xlink:href="#c" id="p" cx="202.51" cy="538.01" r="257.14" gradientTransform="matrix(.55154 0 0 1 94.025 .067)" gradientUnits="userSpaceOnUse"/><radialGradient xlink:href="#c" id="n" cx="240.64" cy="467.49" r="257.14" gradientTransform="matrix(.48811 .27449 -.49017 .87163 352.33 -6.041)" gradientUnits="userSpaceOnUse"/><radialGradient xlink:href="#c" id="r" cx="229.97" cy="531.78" r="257.14" gradientTransform="matrix(.65022 .33707 -.46023 .8878 300.93 -11.557)" gradientUnits="userSpaceOnUse"/><radialGradient id="u" cx="498.44" cy="834.63" r="257.14" gradientTransform="rotate(-6.841 -588.96 1575.484) scale(1.16157)" gradientUnits="userSpaceOnUse"><stop offset="0" style="stop-color:#fff"/><stop offset="1" style="stop-color:#fff;stop-opacity:0"/></radialGradient><radialGradient id="w" cx="432.35" cy="494.07" r="80.999" gradientTransform="matrix(-1.8619 -2.2355 1.054 -.87785 716.6 1891)" gradientUnits="userSpaceOnUse"><stop offset="0" style="stop-color:#fff"/><stop offset="1" style="stop-color:#fff;stop-opacity:0"/></radialGradient><linearGradient id="c"><stop offset="0" style="stop-color:#0ff"/><stop offset="1" style="stop-color:#000;stop-opacity:0"/></linearGradient><linearGradient id="b"><stop offset="0" style="stop-color:#fff"/><stop offset=".906" style="stop-color:#fff;stop-opacity:0"/><stop offset="1" style="stop-color:#fff"/></linearGradient><linearGradient id="a"><stop offset="0" style="stop-color:#fff"/><stop offset="1" style="stop-color:#fff;stop-opacity:0"/></linearGradient><filter id="l" width="1.598" height="1.598" x="-.299" y="-.299" color-interpolation-filters="sRGB"><feGaussianBlur stdDeviation="64.028"/></filter></defs><g transform="translate(-143.5 -213.04)"><path d="M631.43 803.79c-7.42 4.565-8.879-1.246-16.481 3.01-6.49 3.631-2.238 7.89-8.9 11.194-7.804 3.872-8.729-2.048-16.686 1.498-6.793 3.027-2.946 7.654-9.88 10.34-8.125 3.146-8.507-2.833-16.754-.025-7.04 2.396-3.63 7.354-10.78 9.398-8.376 2.394-8.213-3.595-16.682-1.549-7.229 1.747-4.283 6.994-11.59 8.379-8.56 1.622-7.852-4.327-16.472-3.06-7.358 1.083-4.902 6.576-12.304 7.29-8.671.838-7.426-5.022-16.125-4.544-7.426.409-5.48 6.103-12.916 6.142-8.711.045-6.939-5.678-15.645-5.993-7.432-.268-6.011 5.58-13.42 4.942-8.68-.747-6.395-6.285-15.036-7.39-7.377-.944-6.494 5.009-13.815 3.7-8.576-1.533-5.796-6.84-14.3-8.727-7.261-1.61-6.923 4.398-14.095 2.43-8.4-2.308-5.15-7.34-13.448-9.992-7.084-2.264-7.294 3.75-14.256 1.137-8.156-3.06-4.461-7.777-12.484-11.172-6.849-2.898-7.604 3.072-14.3-.164-7.845-3.79-3.736-8.15-11.417-12.26-6.557-3.51-7.852 2.366-14.227-1.465-7.467-4.487-2.979-8.456-10.254-13.249-6.21-4.09-8.035 1.643-14.035-2.751-7.028-5.148-2.197-8.692-9.007-14.126-5.812-4.64-8.15.905-13.726-4.017-6.53-5.765-1.398-8.856-7.685-14.887-5.367-5.148-8.2.161-13.304-5.247-5.979-6.336-.587-8.947-6.3-15.524-4.876-5.615-8.18-.586-12.771-6.436-5.378-6.854.229-8.963-4.862-16.032-4.345-6.035-8.093-1.327-12.134-7.571-4.733-7.314 1.043-8.905-3.383-16.408-3.78-6.405-7.94-2.058-11.395-8.643-4.049-7.714 1.848-8.773-1.878-16.648-3.18-6.722-7.719-2.77-10.562-9.643-3.33-8.05 2.639-8.568-.356-16.75-2.556-6.984-7.435-3.461-9.64-10.564-2.585-8.32 3.406-8.293 1.168-16.713-1.91-7.187-7.09-4.123-8.64-11.396-1.818-8.52 4.146-7.949 2.683-16.537-1.25-7.331-6.685-4.75-7.569-12.135-1.034-8.65 4.853-7.539 4.177-16.224-.578-7.414-6.226-5.339-6.434-12.773-.244-8.708 5.518-7.066 5.635-15.778.099-7.436-5.715-5.883-5.246-13.305.55-8.694 6.138-6.535 7.046-15.2.775-7.396-5.156-6.378-4.014-13.727 1.338-8.608 6.707-5.95 8.399-14.496 1.444-7.295-4.554-6.82-2.749-14.035 2.115-8.451 7.22-5.316 9.682-13.672 2.102-7.134-3.915-7.206-1.461-14.227 2.875-8.224 7.673-4.637 10.885-12.735 2.742-6.913-3.244-7.533-.161-14.3 3.61-7.93 8.063-3.921 11.998-11.694 3.359-6.635-2.546-7.796 1.14-14.256 4.316-7.567 8.385-3.17 13.011-10.553 3.949-6.302-1.826-7.995 2.431-14.094 4.987-7.143 8.64-2.395 13.918-9.326 4.506-5.917-1.09-8.128 3.703-13.814 5.616-6.66 8.822-1.6 14.708-8.022 5.025-5.482-.347-8.194 4.944-13.42 6.198-6.122 8.93-.79 15.377-6.651 5.502-5.003.4-8.192 6.143-12.915 6.73-5.533 8.966.025 15.918-5.225 5.935-4.482 1.143-8.122 7.293-12.303 7.204-4.899 8.926.84 16.327-3.757 6.318-3.923 1.876-7.984 8.381-11.589 7.62-4.222 8.813 1.649 16.601-2.256 6.648-3.333 2.594-7.78 9.4-10.779 7.973-3.512 8.627 2.443 16.737-.737 6.924-2.714 3.291-7.512 10.341-9.879 8.259-2.773 8.369 3.217 16.735.788 7.142-2.074 3.96-7.181 11.197-8.898 8.477-2.01 8.042 3.965 16.594 2.307 7.301-1.416 4.597-6.792 11.96-7.843 8.624-1.231 7.648 4.68 16.315 3.806 7.4-.746 5.196-6.345 12.623-6.723 8.7-.441 7.19 5.356 15.902 5.274 7.437-.07 5.752-5.847 13.182-5.547 8.705.351 6.674 5.988 15.356 6.698 7.412.607 6.26-5.3 13.632-4.325 8.637 1.141 6.102 6.57 14.684 8.067 7.326 1.278 6.715-4.709 13.97-3.068 8.496 1.922 5.478 7.097 13.888 9.368 7.18 1.94 7.116-4.078 14.19-1.784 8.287 2.686 4.81 7.565 12.98 10.593 6.974 2.583 7.457-3.415 14.293-.487 8.009 3.429 4.103 7.971 11.963 11.729 6.71 3.207 7.737-2.722 14.28.814 7.663 4.144 3.36 8.312 10.846 12.768 6.39 3.805 7.952-2.007 14.145 2.11 7.255 4.823 2.591 8.584 9.64 13.702 6.019 4.37 8.102-1.275 13.896 3.388 6.786 5.462 1.8 8.783 8.354 14.522 5.596 4.898 8.184-.534 13.53 4.637 6.26 6.057.993 8.91 6.999 15.22 5.127 5.388 8.198.213 13.05 5.849 5.686 6.601.18 8.964 5.587 15.795 4.616 5.83 8.145.957 12.466 7.01 5.061 7.091-.637 8.943 4.127 16.237 4.066 6.227 8.024 1.694 11.776 8.115 4.395 7.522-1.447 8.848 2.633 16.545 3.484 6.57 7.837 2.417 10.99 9.153 3.693 7.89-2.246 8.68 1.118 16.716 2.872 6.86 7.585 3.12 10.112 10.114 2.96 8.193-3.026 8.44-.407 16.748 2.236 7.093 7.27 3.796 9.15 10.99 2.203 8.43-3.78 8.13-1.928 16.643 1.582 7.267 6.895 4.441 8.113 11.778 1.427 8.594-4.504 7.752-3.433 16.398.914 7.38 6.462 5.05 7.008 12.467.64 8.688-5.19 7.31-4.91 16.018.239 7.433 5.976 5.617 5.845 13.053-.153 8.71-5.834 6.808-6.346 15.505-.438 7.424 5.44 6.137 4.634 13.53-.944 8.66-6.429 6.249-7.73 14.863-1.111 7.353 4.86 6.606 3.385 13.895-1.728 8.538-6.97 5.639-9.05 14.099-1.775 7.222 4.239 7.02 2.107 14.146-2.497 8.346-7.454 4.981-10.294 13.217-2.424 7.03 3.583 7.377.812 14.279-3.246 8.084-7.876 4.283-11.454 12.227-3.053 6.78 2.898 7.672-.49 14.293-3.967 7.756-8.233 3.549-12.517 11.134-3.658 6.475 2.187 7.904-1.788 14.19-4.656 7.363-8.522 2.785-13.479 9.95-4.231 6.115 1.46 8.07-3.07 13.968-5.306 6.909-8.74 1.999-14.328 8.683-4.77 5.705.72 8.17-4.327 13.63-5.913 6.398-8.886 1.197-15.058 7.345-5.27 5.248-.026 8.201-5.55 13.18-6.47 5.834-8.957.384-15.663 5.945-5.724 4.748-.771 8.165-6.725 12.622-6.974 5.221-8.955-.433-16.139 4.496-6.132 4.207-1.51 8.06-7.845 11.958z" style="fill:url(#d)"/><path d="M720 538.08c0 142.02-115.13 257.14-257.14 257.14-142.02 0-257.14-115.13-257.14-257.14 0-142.02 115.13-257.14 257.14-257.14C604.87 280.93 720 396.06 720 538.08z" style="fill:url(#e)" transform="translate(-82.732 -101.87) scale(1.1789)"/><path d="M720 538.08c0 142.02-115.13 257.14-257.14 257.14-142.02 0-257.14-115.13-257.14-257.14 0-142.02 115.13-257.14 257.14-257.14C604.87 280.93 720 396.06 720 538.08z" style="fill:#000" transform="matrix(1.14 0 0 1.14 -64.732 -80.948)"/><path d="M720 538.08c0 142.02-115.13 257.14-257.14 257.14-142.02 0-257.14-115.13-257.14-257.14 0-142.02 115.13-257.14 257.14-257.14C604.87 280.93 720 396.06 720 538.08z" style="fill:url(#f)" transform="translate(-46.732 -60.023) scale(1.1011)"/><path d="M720 538.08c0 142.02-115.13 257.14-257.14 257.14-142.02 0-257.14-115.13-257.14-257.14 0-142.02 115.13-257.14 257.14-257.14C604.87 280.93 720 396.06 720 538.08z" style="fill:url(#g)" transform="translate(-21.532 -30.727) scale(1.0467)"/><path d="M720 538.08c0 142.02-115.13 257.14-257.14 257.14-142.02 0-257.14-115.13-257.14-257.14 0-142.02 115.13-257.14 257.14-257.14C604.87 280.93 720 396.06 720 538.08z" style="fill:url(#h)" transform="translate(-12.532 -20.265) scale(1.0272)"/><path d="M720 538.08c0 142.02-115.13 257.14-257.14 257.14-142.02 0-257.14-115.13-257.14-257.14 0-142.02 115.13-257.14 257.14-257.14C604.87 280.93 720 396.06 720 538.08z" style="fill:url(#i)" transform="translate(75.668 82.269) scale(.83667)"/><path d="M720 538.08c0 142.02-115.13 257.14-257.14 257.14-142.02 0-257.14-115.13-257.14-257.14 0-142.02 115.13-257.14 257.14-257.14C604.87 280.93 720 396.06 720 538.08z" style="fill:url(#j)" transform="matrix(.79778 0 0 -.79778 93.668 961.72)"/><path d="M720 538.08c0 142.02-115.13 257.14-257.14 257.14-142.02 0-257.14-115.13-257.14-257.14 0-142.02 115.13-257.14 257.14-257.14C604.87 280.93 720 396.06 720 538.08z" style="fill:url(#k)" transform="translate(106.27 117.84) scale(.77056)"/><path d="M720 538.08c0 142.02-115.13 257.14-257.14 257.14-142.02 0-257.14-115.13-257.14-257.14 0-142.02 115.13-257.14 257.14-257.14C604.87 280.93 720 396.06 720 538.08z" style="filter:url(#l);fill:url(#radialGradient3786)" transform="rotate(180 353.99 408.67) scale(.52944)"/><path d="M720 538.08c0 142.02-115.13 257.14-257.14 257.14-142.02 0-257.14-115.13-257.14-257.14 0-142.02 115.13-257.14 257.14-257.14C604.87 280.93 720 396.06 720 538.08z" style="stroke:url(#m);stroke-width:4.1179;fill:none" transform="translate(125.72 140.46) scale(.72852)"/><path d="M720 538.08c0 142.02-115.13 257.14-257.14 257.14-142.02 0-257.14-115.13-257.14-257.14 0-142.02 115.13-257.14 257.14-257.14C604.87 280.93 720 396.06 720 538.08z" style="stroke:url(#m);stroke-width:4.1179;fill:none" transform="matrix(.71695 0 0 -.71695 131.08 918.23)"/><path d="M720 538.08c0 142.02-115.13 257.14-257.14 257.14-142.02 0-257.14-115.13-257.14-257.14 0-142.02 115.13-257.14 257.14-257.14C604.87 280.93 720 396.06 720 538.08z" style="fill:#00112b" transform="matrix(0 .44389 .44389 0 224.08 327)"/><path d="M720 538.08c0 142.02-115.13 257.14-257.14 257.14-142.02 0-257.14-115.13-257.14-257.14 0-142.02 115.13-257.14 257.14-257.14C604.87 280.93 720 396.06 720 538.08z" style="stroke:url(#m);stroke-width:4.1179;fill:none" transform="translate(136.44 152.92) scale(.70537)"/><path d="M720 538.08c0 142.02-115.13 257.14-257.14 257.14-142.02 0-257.14-115.13-257.14-257.14 0-142.02 115.13-257.14 257.14-257.14C604.87 280.93 720 396.06 720 538.08z" style="stroke:url(#m);stroke-width:4.1179;fill:none" transform="matrix(.6938 0 0 -.6938 141.8 905.78)"/><path d="M720 538.08c0 142.02-115.13 257.14-257.14 257.14-142.02 0-257.14-115.13-257.14-257.14 0-142.02 115.13-257.14 257.14-257.14C604.87 280.93 720 396.06 720 538.08z" style="stroke:url(#m);stroke-width:4.1179;fill:none" transform="translate(147.15 165.37) scale(.68222)"/><path d="M462.94 334.31c-109.43 0-198.16 88.725-198.16 198.16 0 64.231 30.562 121.33 77.938 157.53-6.997-20.27-10.781-42.04-10.781-64.688 0-109.43 88.694-198.12 198.12-198.12 45.192 0 86.852 15.124 120.19 40.594-26.81-77.67-100.53-133.47-187.31-133.47z" style="opacity:.2449;fill:#fff"/><path d="M720 538.08c0 142.02-115.13 257.14-257.14 257.14-142.02 0-257.14-115.13-257.14-257.14 0-142.02 115.13-257.14 257.14-257.14C604.87 280.93 720 396.06 720 538.08z" style="fill:url(#n)" transform="matrix(.44389 0 0 -.44389 257.47 771.31)"/><path d="M720 538.08c0 142.02-115.13 257.14-257.14 257.14-142.02 0-257.14-115.13-257.14-257.14 0-142.02 115.13-257.14 257.14-257.14C604.87 280.93 720 396.06 720 538.08z" style="stroke:url(#o);stroke-width:4.5056;fill:none" transform="rotate(180 334.19 385.655) scale(.44389)"/><path d="M720 538.08c0 142.02-115.13 257.14-257.14 257.14-142.02 0-257.14-115.13-257.14-257.14 0-142.02 115.13-257.14 257.14-257.14C604.87 280.93 720 396.06 720 538.08z" style="fill:url(#p)" transform="matrix(0 .44389 .44389 0 224.08 327)"/><path d="M720 538.08c0 142.02-115.13 257.14-257.14 257.14-142.02 0-257.14-115.13-257.14-257.14 0-142.02 115.13-257.14 257.14-257.14C604.87 280.93 720 396.06 720 538.08z" style="stroke:url(#q);stroke-width:5.3405;fill:none" transform="rotate(180 318.13 366.985) scale(.3745)"/><path d="M720 538.08c0 142.02-115.13 257.14-257.14 257.14-142.02 0-257.14-115.13-257.14-257.14 0-142.02 115.13-257.14 257.14-257.14C604.87 280.93 720 396.06 720 538.08z" style="fill:url(#r)" transform="rotate(180 334.19 385.655) scale(.44389)"/><path d="M720 538.08c0 142.02-115.13 257.14-257.14 257.14-142.02 0-257.14-115.13-257.14-257.14 0-142.02 115.13-257.14 257.14-257.14C604.87 280.93 720 396.06 720 538.08z" style="stroke:url(#s);stroke-width:5.3405;fill:none" transform="rotate(180 311.005 358.7) scale(.34371)"/><path d="M462.94 334.31c-109.43 0-198.16 88.725-198.16 198.16 0 109.43 88.725 198.12 198.16 198.12 109.43 0 198.12-88.694 198.12-198.12s-88.694-198.16-198.12-198.16zm0 22c97.281 0 176.12 78.875 176.12 176.16 0 97.281-78.844 176.12-176.12 176.12-97.281 0-176.16-78.844-176.16-176.12 0-97.281 78.875-176.16 176.16-176.16z" style="stroke:url(#t);fill:url(#radialGradient3957)"/><path d="M720 538.08c0 142.02-115.13 257.14-257.14 257.14-142.02 0-257.14-115.13-257.14-257.14 0-142.02 115.13-257.14 257.14-257.14C604.87 280.93 720 396.06 720 538.08z" style="fill:#1a1a1a" transform="matrix(-.09389 0 0 -.09389 506.38 582.98)"/><path d="M720 538.08c0 142.02-115.13 257.14-257.14 257.14-142.02 0-257.14-115.13-257.14-257.14 0-142.02 115.13-257.14 257.14-257.14C604.87 280.93 720 396.06 720 538.08z" style="fill:url(#u)" transform="matrix(-.06667 0 0 -.06667 493.78 568.33)"/><path id="v" d="M720 538.08c0 142.02-115.13 257.14-257.14 257.14-142.02 0-257.14-115.13-257.14-257.14 0-142.02 115.13-257.14 257.14-257.14C604.87 280.93 720 396.06 720 538.08z" style="fill:none" transform="translate(54.068 57.159) scale(.88333)"/><text xml:space="preserve" style="font-size:40px;font-family:Bitstream Vera Sans;text-anchor:middle;text-align:center;fill:#fff" transform="rotate(90 464.75 530.2)">
      <textPath xlink:href="#v" startOffset="50%" style="font-size:28px">
        <tspan dx="0 0 4.2857137" style="font-size:28px">LENS MADE IN PARAGUAY      077MM</tspan>
      </textPath>
    </text><text xml:space="preserve" style="font-size:40px;font-family:Bitstream Vera Sans;text-anchor:middle;text-align:center;fill:#fff" transform="rotate(-90 462.654 530.106)">
      <textPath xlink:href="#v" startOffset="50%" style="font-size:28px">
        <tspan dx="0 0 0 0 0 0 0 0 0 4.2857137" style="font-size:28px"> ZOOM  LENS           17-35 mm  1:2-8</tspan>
      </textPath>
    </text><path d="M291.57 501.48c-3.744-29.368 79.497-124.15 131.28-127.69l30.592 89.336c-41.092 40.139-48.323 51.669-49.163 60.664l-112.71-22.31z" style="opacity:.54082;fill:url(#w)"/><path d="M367.64 480.13c7.784-17.041 25.779-35.671 36.781-37.727l45.025 38.705c-23.844 23.29-28.039 29.98-28.527 35.2l-53.28-36.177z" style="opacity:.54082;fill:#fff"/></g></svg>